<svg width="25" height="26" viewBox="0 0 25 26" fill="none" xmlns="http://www.w3.org/2000/svg">
<path d="M12.5 5.29391C16.744 5.29391 20.1971 8.74704 20.1971 12.991C20.1971 17.2351 16.744 20.6882 12.5 20.6882C8.25598 20.6882 4.80285 17.2351 4.80285 12.991C4.80285 8.74704 8.25598 5.29391 12.5 5.29391ZM12.5 3.36963C7.18608 3.36963 2.87857 7.67714 2.87857 12.991C2.87857 18.305 7.18608 22.6125 12.5 22.6125C17.8139 22.6125 22.1214 18.305 22.1214 12.991C22.1214 7.67714 17.8139 3.36963 12.5 3.36963ZM16.3486 11.0668C16.3486 10.0461 15.9431 9.06716 15.2213 8.34541C14.4996 7.62367 13.5207 7.2182 12.5 7.2182C11.4793 7.2182 10.5004 7.62367 9.77864 8.34541C9.05689 9.06716 8.65142 10.0461 8.65142 11.0668H10.5757C10.5757 10.0055 11.4387 9.14248 12.5 9.14248C13.5612 9.14248 14.4243 10.0055 14.4243 11.0668C14.4243 12.128 13.5612 12.991 12.5 12.991C12.2448 12.991 12.0001 13.0924 11.8197 13.2729C11.6392 13.4533 11.5378 13.698 11.5378 13.9532V15.8775H13.4621V14.7797C14.2868 14.5683 15.0178 14.0889 15.5402 13.4168C16.0627 12.7447 16.3471 11.918 16.3486 11.0668ZM13.4621 16.8396H11.5378V18.7639H13.4621V16.8396Z" fill="white"/>
</svg>
