<svg width="25" height="26" viewBox="0 0 25 26" fill="none" xmlns="http://www.w3.org/2000/svg">
<path d="M8.76458 11.7703H14.6417C14.7785 11.7703 14.9139 11.7972 15.0403 11.8495C15.1667 11.9019 15.2815 11.9786 15.3782 12.0754C15.475 12.1721 15.5517 12.2869 15.604 12.4133C15.6564 12.5397 15.6833 12.6751 15.6833 12.8119C15.6833 12.9487 15.6564 13.0842 15.604 13.2106C15.5517 13.3369 15.475 13.4518 15.3782 13.5485C15.2815 13.6452 15.1667 13.7219 15.0403 13.7743C14.9139 13.8266 14.7785 13.8536 14.6417 13.8536H8.76458L9.93333 15.0223C10.1286 15.2178 10.2383 15.4828 10.2382 15.7592C10.2381 16.0355 10.1283 16.3005 9.93281 16.4958C9.73735 16.6911 9.4723 16.8008 9.19598 16.8007C8.91966 16.8006 8.65469 16.6907 8.45937 16.4953L5.51354 13.5494C5.41631 13.4529 5.33915 13.3381 5.28649 13.2116C5.23384 13.0851 5.20673 12.9495 5.20673 12.8124C5.20673 12.6754 5.23384 12.5398 5.28649 12.4133C5.33915 12.2868 5.41631 12.172 5.51354 12.0755L8.45833 9.12963C8.65365 8.93417 8.91862 8.82431 9.19494 8.82421C9.47126 8.82411 9.73631 8.93379 9.93177 9.12911C10.1272 9.32443 10.2371 9.5894 10.2372 9.86572C10.2373 10.142 10.1276 10.4071 9.93229 10.6025L8.76458 11.7703ZM18.75 3.61609C19.0263 3.61609 19.2912 3.72584 19.4866 3.92119C19.6819 4.11654 19.7917 4.38149 19.7917 4.65776V21.3244C19.7917 21.6007 19.6819 21.8656 19.4866 22.061C19.2912 22.2563 19.0263 22.3661 18.75 22.3661C18.4737 22.3661 18.2088 22.2563 18.0134 22.061C17.8181 21.8656 17.7083 21.6007 17.7083 21.3244V4.65776C17.7083 4.38149 17.8181 4.11654 18.0134 3.92119C18.2088 3.72584 18.4737 3.61609 18.75 3.61609V3.61609Z" fill="white"/>
</svg>
