<svg width="280" height="35" viewBox="0 0 280 35" fill="none" xmlns="http://www.w3.org/2000/svg">
<rect x="1" y="1" width="278" height="33" rx="16.5" fill="#C3C3C3" stroke="#7B7B7B" stroke-width="2"/>
<rect width="210" height="35" rx="17.5" fill="#7B7B7B"/>
<path d="M111.736 19.208H117.712V20.144H111.736V19.208ZM111.832 14.996H117.664V15.908H111.832V14.996ZM113.944 18.248L115 18.476C114.808 18.876 114.6 19.296 114.376 19.736C114.152 20.176 113.932 20.6 113.716 21.008C113.5 21.416 113.296 21.78 113.104 22.1L112.108 21.776C112.292 21.472 112.492 21.12 112.708 20.72C112.932 20.312 113.148 19.892 113.356 19.46C113.572 19.028 113.768 18.624 113.944 18.248ZM115.696 19.808L116.752 19.928C116.64 20.528 116.476 21.052 116.26 21.5C116.044 21.948 115.756 22.332 115.396 22.652C115.036 22.972 114.596 23.24 114.076 23.456C113.564 23.68 112.956 23.868 112.252 24.02C112.22 23.86 112.156 23.692 112.06 23.516C111.972 23.34 111.876 23.192 111.772 23.072C112.596 22.944 113.272 22.756 113.8 22.508C114.336 22.252 114.752 21.904 115.048 21.464C115.352 21.024 115.568 20.472 115.696 19.808ZM116.488 13.064L117.46 13.46C117.276 13.732 117.088 14.004 116.896 14.276C116.712 14.548 116.54 14.784 116.38 14.984L115.624 14.636C115.776 14.42 115.932 14.164 116.092 13.868C116.26 13.564 116.392 13.296 116.488 13.064ZM114.232 12.86H115.288V18.404H114.232V12.86ZM112.216 13.46L113.056 13.112C113.224 13.352 113.376 13.616 113.512 13.904C113.656 14.184 113.756 14.428 113.812 14.636L112.936 15.032C112.888 14.816 112.796 14.564 112.66 14.276C112.524 13.98 112.376 13.708 112.216 13.46ZM114.268 15.428L115.012 15.872C114.812 16.2 114.56 16.532 114.256 16.868C113.96 17.196 113.636 17.5 113.284 17.78C112.94 18.06 112.596 18.296 112.252 18.488C112.188 18.36 112.1 18.212 111.988 18.044C111.876 17.876 111.764 17.74 111.652 17.636C111.988 17.5 112.32 17.316 112.648 17.084C112.984 16.852 113.292 16.592 113.572 16.304C113.86 16.016 114.092 15.724 114.268 15.428ZM115.18 15.812C115.284 15.868 115.436 15.96 115.636 16.088C115.844 16.208 116.064 16.34 116.296 16.484C116.536 16.62 116.752 16.752 116.944 16.88C117.144 17 117.284 17.092 117.364 17.156L116.752 17.948C116.648 17.852 116.504 17.728 116.32 17.576C116.136 17.424 115.936 17.268 115.72 17.108C115.512 16.94 115.308 16.784 115.108 16.64C114.916 16.488 114.756 16.368 114.628 16.28L115.18 15.812ZM118.552 15.068H122.884V16.112H118.552V15.068ZM118.768 12.86L119.92 13.028C119.792 13.828 119.628 14.6 119.428 15.344C119.228 16.088 118.988 16.776 118.708 17.408C118.428 18.04 118.108 18.596 117.748 19.076C117.692 19.004 117.608 18.92 117.496 18.824C117.384 18.728 117.268 18.632 117.148 18.536C117.028 18.432 116.924 18.352 116.836 18.296C117.18 17.872 117.476 17.376 117.724 16.808C117.972 16.232 118.184 15.608 118.36 14.936C118.536 14.264 118.672 13.572 118.768 12.86ZM121.06 15.692L122.212 15.8C122.028 17.176 121.748 18.388 121.372 19.436C121.004 20.484 120.496 21.388 119.848 22.148C119.208 22.9 118.384 23.532 117.376 24.044C117.344 23.956 117.288 23.844 117.208 23.708C117.128 23.58 117.044 23.452 116.956 23.324C116.868 23.196 116.788 23.096 116.716 23.024C117.644 22.592 118.4 22.044 118.984 21.38C119.576 20.708 120.032 19.9 120.352 18.956C120.68 18.012 120.916 16.924 121.06 15.692ZM119.176 15.944C119.344 17.008 119.584 18.008 119.896 18.944C120.216 19.872 120.628 20.688 121.132 21.392C121.644 22.088 122.272 22.632 123.016 23.024C122.928 23.096 122.832 23.188 122.728 23.3C122.624 23.42 122.528 23.54 122.44 23.66C122.352 23.78 122.276 23.892 122.212 23.996C121.42 23.532 120.76 22.916 120.232 22.148C119.704 21.372 119.272 20.476 118.936 19.46C118.608 18.436 118.344 17.32 118.144 16.112L119.176 15.944ZM112.972 21.692L113.584 20.912C114.056 21.096 114.528 21.304 115 21.536C115.472 21.76 115.908 21.996 116.308 22.244C116.716 22.484 117.06 22.712 117.34 22.928L116.56 23.744C116.296 23.52 115.972 23.284 115.588 23.036C115.204 22.788 114.788 22.548 114.34 22.316C113.892 22.084 113.436 21.876 112.972 21.692ZM127.192 14.036H134.38V15.02H127.192V14.036ZM127.492 22.436H134.452V23.432H127.492V22.436ZM130.48 12.872L131.62 12.932C131.588 13.308 131.548 13.708 131.5 14.132C131.46 14.548 131.416 14.948 131.368 15.332C131.32 15.716 131.268 16.056 131.212 16.352H130.156C130.204 16.048 130.248 15.696 130.288 15.296C130.328 14.896 130.364 14.488 130.396 14.072C130.436 13.648 130.464 13.248 130.48 12.872ZM130.012 18.344V19.172H132.688V18.344H130.012ZM130.012 19.964V20.804H132.688V19.964H130.012ZM130.012 16.724V17.552H132.688V16.724H130.012ZM128.956 15.896H133.78V21.632H128.956V15.896ZM126.976 16.544H128.044V23.996H126.976V16.544ZM125.932 12.92L127.012 13.244C126.748 13.924 126.44 14.6 126.088 15.272C125.736 15.944 125.356 16.576 124.948 17.168C124.54 17.76 124.12 18.284 123.688 18.74C123.648 18.644 123.592 18.524 123.52 18.38C123.448 18.236 123.368 18.088 123.28 17.936C123.2 17.784 123.128 17.668 123.064 17.588C123.448 17.204 123.816 16.764 124.168 16.268C124.528 15.764 124.86 15.228 125.164 14.66C125.468 14.084 125.724 13.504 125.932 12.92ZM124.732 16.1L125.8 15.032L125.812 15.044V23.996H124.732V16.1ZM143.764 13.556C143.868 13.692 143.976 13.86 144.088 14.06C144.208 14.26 144.324 14.46 144.436 14.66C144.548 14.86 144.644 15.04 144.724 15.2L143.944 15.536C143.824 15.296 143.672 15.016 143.488 14.696C143.312 14.376 143.144 14.104 142.984 13.88L143.764 13.556ZM145.12 13.04C145.224 13.192 145.336 13.368 145.456 13.568C145.584 13.768 145.708 13.968 145.828 14.168C145.948 14.36 146.044 14.528 146.116 14.672L145.336 15.02C145.208 14.764 145.052 14.48 144.868 14.168C144.692 13.856 144.52 13.588 144.352 13.364L145.12 13.04ZM136.984 19.34C137.112 19.012 137.236 18.664 137.356 18.296C137.484 17.928 137.6 17.548 137.704 17.156C137.808 16.756 137.896 16.36 137.968 15.968C138.048 15.576 138.108 15.2 138.148 14.84L139.504 15.116C139.48 15.22 139.452 15.336 139.42 15.464C139.388 15.584 139.356 15.704 139.324 15.824C139.3 15.944 139.276 16.048 139.252 16.136C139.212 16.328 139.156 16.576 139.084 16.88C139.02 17.176 138.94 17.496 138.844 17.84C138.748 18.176 138.644 18.52 138.532 18.872C138.428 19.216 138.316 19.536 138.196 19.832C138.052 20.208 137.884 20.596 137.692 20.996C137.5 21.388 137.296 21.772 137.08 22.148C136.864 22.524 136.648 22.868 136.432 23.18L135.124 22.628C135.5 22.132 135.852 21.588 136.18 20.996C136.508 20.396 136.776 19.844 136.984 19.34ZM142.9 18.968C142.78 18.656 142.644 18.324 142.492 17.972C142.348 17.62 142.196 17.268 142.036 16.916C141.884 16.556 141.732 16.22 141.58 15.908C141.428 15.596 141.288 15.328 141.16 15.104L142.396 14.696C142.516 14.92 142.652 15.188 142.804 15.5C142.964 15.812 143.124 16.148 143.284 16.508C143.444 16.86 143.6 17.212 143.752 17.564C143.904 17.916 144.04 18.244 144.16 18.548C144.272 18.836 144.392 19.16 144.52 19.52C144.656 19.88 144.788 20.252 144.916 20.636C145.052 21.012 145.176 21.38 145.288 21.74C145.4 22.092 145.496 22.412 145.576 22.7L144.208 23.144C144.104 22.704 143.98 22.244 143.836 21.764C143.692 21.284 143.54 20.804 143.38 20.324C143.228 19.844 143.068 19.392 142.9 18.968ZM151.768 14.912C151.768 14.72 151.756 14.496 151.732 14.24C151.716 13.976 151.684 13.768 151.636 13.616H153.148C153.124 13.768 153.104 13.976 153.088 14.24C153.072 14.504 153.064 14.728 153.064 14.912C153.064 15.144 153.064 15.404 153.064 15.692C153.064 15.972 153.064 16.26 153.064 16.556C153.064 16.844 153.064 17.116 153.064 17.372C153.064 18.028 153.008 18.648 152.896 19.232C152.784 19.816 152.596 20.368 152.332 20.888C152.076 21.4 151.732 21.876 151.3 22.316C150.868 22.756 150.332 23.168 149.692 23.552L148.516 22.676C149.108 22.396 149.612 22.076 150.028 21.716C150.444 21.348 150.78 20.944 151.036 20.504C151.292 20.056 151.476 19.572 151.588 19.052C151.708 18.524 151.768 17.964 151.768 17.372C151.768 17.124 151.768 16.852 151.768 16.556C151.768 16.26 151.768 15.968 151.768 15.68C151.768 15.384 151.768 15.128 151.768 14.912ZM147.208 16.316C147.36 16.34 147.544 16.36 147.76 16.376C147.976 16.384 148.196 16.388 148.42 16.388C148.508 16.388 148.7 16.388 148.996 16.388C149.292 16.388 149.656 16.388 150.088 16.388C150.52 16.388 150.984 16.388 151.48 16.388C151.976 16.388 152.472 16.388 152.968 16.388C153.464 16.388 153.924 16.388 154.348 16.388C154.78 16.388 155.144 16.388 155.44 16.388C155.744 16.388 155.944 16.388 156.04 16.388C156.272 16.388 156.496 16.384 156.712 16.376C156.928 16.36 157.088 16.344 157.192 16.328V17.624C157.088 17.608 156.92 17.6 156.688 17.6C156.456 17.592 156.236 17.588 156.028 17.588C155.932 17.588 155.736 17.588 155.44 17.588C155.144 17.588 154.78 17.588 154.348 17.588C153.924 17.588 153.464 17.588 152.968 17.588C152.472 17.588 151.976 17.588 151.48 17.588C150.984 17.588 150.524 17.588 150.1 17.588C149.676 17.588 149.316 17.588 149.02 17.588C148.724 17.588 148.532 17.588 148.444 17.588C148.204 17.588 147.976 17.592 147.76 17.6C147.544 17.608 147.36 17.62 147.208 17.636V16.316ZM158.848 17.648C158.984 17.656 159.148 17.668 159.34 17.684C159.54 17.692 159.752 17.7 159.976 17.708C160.208 17.716 160.428 17.72 160.636 17.72C160.796 17.72 161.016 17.72 161.296 17.72C161.576 17.72 161.892 17.72 162.244 17.72C162.604 17.72 162.98 17.72 163.372 17.72C163.764 17.72 164.152 17.72 164.536 17.72C164.928 17.72 165.296 17.72 165.64 17.72C165.984 17.72 166.288 17.72 166.552 17.72C166.816 17.72 167.02 17.72 167.164 17.72C167.452 17.72 167.712 17.712 167.944 17.696C168.176 17.672 168.364 17.656 168.508 17.648V19.136C168.372 19.128 168.18 19.116 167.932 19.1C167.684 19.084 167.428 19.076 167.164 19.076C167.028 19.076 166.824 19.076 166.552 19.076C166.288 19.076 165.984 19.076 165.64 19.076C165.296 19.076 164.928 19.076 164.536 19.076C164.152 19.076 163.764 19.076 163.372 19.076C162.98 19.076 162.604 19.076 162.244 19.076C161.892 19.076 161.576 19.076 161.296 19.076C161.016 19.076 160.796 19.076 160.636 19.076C160.308 19.076 159.98 19.084 159.652 19.1C159.324 19.108 159.056 19.12 158.848 19.136V17.648Z" fill="white"/>
</svg>
