<svg width="25" height="26" viewBox="0 0 25 26" fill="none" xmlns="http://www.w3.org/2000/svg">
<path d="M19.5046 13.4753V12.5005L20.7278 11.4302C20.9533 11.2315 21.1013 10.9595 21.1456 10.6622C21.1899 10.3649 21.1276 10.0615 20.9699 9.80568L19.4664 7.25734C19.3547 7.06383 19.194 6.90311 19.0006 6.79129C18.8071 6.67947 18.5877 6.62049 18.3642 6.62026C18.2258 6.61919 18.088 6.64071 17.9565 6.68396L16.4084 7.20637C16.1411 7.02876 15.8623 6.86914 15.5738 6.72856L15.2489 5.12311C15.1906 4.8298 15.0311 4.56632 14.7981 4.3788C14.5652 4.19129 14.2737 4.09167 13.9747 4.0974H10.9932C10.6942 4.09167 10.4027 4.19129 10.1698 4.3788C9.93682 4.56632 9.77726 4.8298 9.719 5.12311L9.39409 6.72856C9.10353 6.8691 8.8226 7.02872 8.55313 7.20637L7.03687 6.65848C6.90391 6.62384 6.76622 6.61093 6.62914 6.62026C6.4057 6.62049 6.18624 6.67947 5.9928 6.79129C5.79935 6.90311 5.6387 7.06383 5.52698 7.25734L4.02346 9.80568C3.87476 10.0611 3.8195 10.3604 3.86716 10.6521C3.91481 10.9438 4.06241 11.2099 4.28467 11.4048L5.48876 12.5069V13.4817L4.28467 14.552C4.05613 14.7482 3.90449 15.019 3.85667 15.3164C3.80886 15.6138 3.86795 15.9185 4.02346 16.1765L5.52698 18.7249C5.6387 18.9184 5.79935 19.0791 5.9928 19.1909C6.18624 19.3027 6.4057 19.3617 6.62914 19.3619C6.76761 19.363 6.90533 19.3415 7.03687 19.2982L8.58499 18.7758C8.85227 18.9534 9.13108 19.1131 9.41957 19.2536L9.74448 20.8591C9.80274 21.1524 9.96231 21.4159 10.1952 21.6034C10.4282 21.7909 10.7197 21.8905 11.0187 21.8848H14.0257C14.3247 21.8905 14.6161 21.7909 14.8491 21.6034C15.082 21.4159 15.2416 21.1524 15.2999 20.8591L15.6248 19.2536C15.9153 19.1131 16.1963 18.9535 16.4657 18.7758L18.0075 19.2982C18.139 19.3415 18.2767 19.363 18.4152 19.3619C18.6386 19.3617 18.8581 19.3027 19.0515 19.1909C19.245 19.0791 19.4056 18.9184 19.5174 18.7249L20.9699 16.1765C21.1186 15.9211 21.1739 15.6218 21.1262 15.3301C21.0786 15.0384 20.931 14.7723 20.7087 14.5774L19.5046 13.4753ZM18.3642 18.0878L16.179 17.3488C15.6675 17.782 15.0829 18.1207 14.4525 18.349L14.0002 20.6361H10.9932L10.5408 18.3745C9.91549 18.1397 9.33402 17.8016 8.82071 17.3742L6.62914 18.0878L5.12562 15.5394L6.85849 14.0104C6.74069 13.351 6.74069 12.6758 6.85849 12.0164L5.12562 10.4428L6.62914 7.89442L8.81434 8.63344C9.32588 8.20016 9.91051 7.86146 10.5408 7.63322L10.9932 5.34609H14.0002L14.4525 7.60774C15.0779 7.84245 15.6594 8.18057 16.1727 8.60796L18.3642 7.89442L19.8678 10.4428L18.1349 11.9718C18.2527 12.6312 18.2527 13.3064 18.1349 13.9658L19.8678 15.5394L18.3642 18.0878Z" fill="white"/>
<path d="M12.4999 16.8135C11.7439 16.8135 11.0048 16.5893 10.3762 16.1693C9.7476 15.7492 9.25766 15.1522 8.96834 14.4538C8.67902 13.7553 8.60333 12.9867 8.75082 12.2452C8.89831 11.5037 9.26237 10.8226 9.79696 10.288C10.3315 9.75346 11.0126 9.3894 11.7541 9.24191C12.4956 9.09441 13.2642 9.17011 13.9627 9.45943C14.6612 9.74875 15.2582 10.2387 15.6782 10.8673C16.0982 11.4959 16.3224 12.2349 16.3224 12.991C16.3275 13.4944 16.2321 13.9937 16.0418 14.4598C15.8515 14.9259 15.5702 15.3493 15.2142 15.7053C14.8582 16.0612 14.4348 16.3426 13.9687 16.5329C13.5026 16.7232 13.0033 16.8186 12.4999 16.8135ZM12.4999 10.4426C12.1631 10.4348 11.8282 10.4953 11.5155 10.6206C11.2027 10.7459 10.9187 10.9333 10.6805 11.1715C10.4422 11.4098 10.2548 11.6938 10.1295 12.0066C10.0042 12.3193 9.94369 12.6542 9.95154 12.991C9.94369 13.3278 10.0042 13.6627 10.1295 13.9754C10.2548 14.2881 10.4422 14.5722 10.6805 14.8104C10.9187 15.0486 11.2027 15.236 11.5155 15.3613C11.8282 15.4866 12.1631 15.5471 12.4999 15.5393C12.8367 15.5471 13.1716 15.4866 13.4843 15.3613C13.797 15.236 14.0811 15.0486 14.3193 14.8104C14.5575 14.5722 14.7449 14.2881 14.8702 13.9754C14.9955 13.6627 15.0561 13.3278 15.0482 12.991C15.0561 12.6542 14.9955 12.3193 14.8702 12.0066C14.7449 11.6938 14.5575 11.4098 14.3193 11.1715C14.0811 10.9333 13.797 10.7459 13.4843 10.6206C13.1716 10.4953 12.8367 10.4348 12.4999 10.4426Z" fill="white"/>
</svg>
